REM DIRINDEX 1\2\6,1\2\7,1\2\8,1\2\9,1\3\10,1\3\11,1\4\12,1\4\13,1\4\14,1\5\15,1\5\16,1\5\17
REM DIRNAME folder01,folder02,folder03,folder04,folder05,folder06,folder07,folder08,folder09,folder10,folder11,folder12,folder13,folder14,folder15,folder16,folder17
TITLE ""
FILE "1400_3_sec08_0735_0751.mp3" MP3
  TRACK 01 AUDIO
    TITLE "0:"
    INDEX 01 00:00:00
  TRACK 02 AUDIO
    TITLE "17:cjc029_5904"
    INDEX 01 00:00:17
  TRACK 03 AUDIO
    TITLE "0:"
    INDEX 01 00:01:26
  TRACK 04 AUDIO
    TITLE "16:cjc029_5905"
    INDEX 01 00:01:32
  TRACK 05 AUDIO
    TITLE "0:"
    INDEX 01 00:02:59
  TRACK 06 AUDIO
    TITLE "17:cjc029_5906"
    INDEX 01 00:03:41
  TRACK 07 AUDIO
    TITLE "0:"
    INDEX 01 00:04:62
  TRACK 08 AUDIO
    TITLE "16:cjc029_5907"
    INDEX 01 00:04:66
  TRACK 09 AUDIO
    TITLE "0:"
    INDEX 01 00:06:41
  TRACK 10 AUDIO
    TITLE "17:cjc029_5908"
    INDEX 01 00:07:25
  TRACK 11 AUDIO
    TITLE "0:"
    INDEX 01 00:08:26
  TRACK 12 AUDIO
    TITLE "16:cjc029_5909"
    INDEX 01 00:08:38
  TRACK 13 AUDIO
    TITLE "0:"
    INDEX 01 00:09:38
  TRACK 14 AUDIO
    TITLE "17:cjc029_5910"
    INDEX 01 00:10:21
  TRACK 15 AUDIO
    TITLE "0:"
    INDEX 01 00:12:56
  TRACK 16 AUDIO
    TITLE "16:cjc029_5911"
    INDEX 01 00:12:69
  TRACK 17 AUDIO
    TITLE "0:"
    INDEX 01 00:13:71
  TRACK 18 AUDIO
    TITLE "17:cjc029_5912"
    INDEX 01 00:14:56
  TRACK 19 AUDIO
    TITLE "0:"
    INDEX 01 00:15:56
  TRACK 20 AUDIO
    TITLE "16:cjc029_5913"
    INDEX 01 00:15:74
  TRACK 21 AUDIO
    TITLE "0:"
    INDEX 01 00:17:00
  TRACK 22 AUDIO
    TITLE "17:cjc029_5914"
    INDEX 01 00:17:57
  TRACK 23 AUDIO
    TITLE "0:"
    INDEX 01 00:19:20
  TRACK 24 AUDIO
    TITLE "16:cjc029_5915"
    INDEX 01 00:19:24
  TRACK 25 AUDIO
    TITLE "0:"
    INDEX 01 00:20:30
  TRACK 26 AUDIO
    TITLE "17:cjc029_5916"
    INDEX 01 00:21:13
  TRACK 27 AUDIO
    TITLE "0:"
    INDEX 01 00:23:08
  TRACK 28 AUDIO
    TITLE "16:cjc029_5917"
    INDEX 01 00:23:14
  TRACK 29 AUDIO
    TITLE "0:"
    INDEX 01 00:24:29
  TRACK 30 AUDIO
    TITLE "17:cjc029_5918"
    INDEX 01 00:25:17
  TRACK 31 AUDIO
    TITLE "0:"
    INDEX 01 00:27:32
  TRACK 32 AUDIO
    TITLE "16:cjc029_5919"
    INDEX 01 00:27:38
  TRACK 33 AUDIO
    TITLE "0:"
    INDEX 01 00:29:05
  TRACK 34 AUDIO
    TITLE "17:cjc029_5920"
    INDEX 01 00:29:64
  TRACK 35 AUDIO
    TITLE "0:"
    INDEX 01 00:31:02
  TRACK 36 AUDIO
    TITLE "16:cjc029_5921"
    INDEX 01 00:31:12
  TRACK 37 AUDIO
    TITLE "0:"
    INDEX 01 00:32:47
  TRACK 38 AUDIO
    TITLE "17:cjc029_5922"
    INDEX 01 00:33:30
  TRACK 39 AUDIO
    TITLE "0:"
    INDEX 01 00:34:45
  TRACK 40 AUDIO
    TITLE "16:cjc029_5923"
    INDEX 01 00:34:57
  TRACK 41 AUDIO
    TITLE "0:"
    INDEX 01 00:36:05
  TRACK 42 AUDIO
    TITLE "17:cjc029_5924"
    INDEX 01 00:36:66
  TRACK 43 AUDIO
    TITLE "0:"
    INDEX 01 00:38:00
  TRACK 44 AUDIO
    TITLE "16:cjc029_5925"
    INDEX 01 00:38:04
  TRACK 45 AUDIO
    TITLE "0:"
    INDEX 01 00:39:33
  TRACK 46 AUDIO
    TITLE "17:cjc029_5926"
    INDEX 01 00:40:17
  TRACK 47 AUDIO
    TITLE "0:"
    INDEX 01 00:41:18
  TRACK 48 AUDIO
    TITLE "16:cjc029_5927"
    INDEX 01 00:41:22
  TRACK 49 AUDIO
    TITLE "0:"
    INDEX 01 00:42:47
  TRACK 50 AUDIO
    TITLE "17:cjc029_5928"
    INDEX 01 00:43:29
  TRACK 51 AUDIO
    TITLE "0:"
    INDEX 01 00:44:44
  TRACK 52 AUDIO
    TITLE "16:cjc029_5929"
    INDEX 01 00:44:50
  TRACK 53 AUDIO
    TITLE "0:"
    INDEX 01 00:46:00
  TRACK 54 AUDIO
    TITLE "17:cjc029_5930"
    INDEX 01 00:46:60
  TRACK 55 AUDIO
    TITLE "0:"
    INDEX 01 00:47:50
  TRACK 56 AUDIO
    TITLE "16:cjc029_5931"
    INDEX 01 00:47:58
  TRACK 57 AUDIO
    TITLE "0:"
    INDEX 01 00:48:71
  TRACK 58 AUDIO
    TITLE "17:cjc029_5932"
    INDEX 01 00:49:55
  TRACK 59 AUDIO
    TITLE "0:"
    INDEX 01 00:50:60
  TRACK 60 AUDIO
    TITLE "16:cjc029_5933"
    INDEX 01 00:50:66
  TRACK 61 AUDIO
    TITLE "0:"
    INDEX 01 00:52:18
  TRACK 62 AUDIO
    TITLE "17:cjc029_5934"
    INDEX 01 00:53:04
  TRACK 63 AUDIO
    TITLE "0:"
    INDEX 01 00:54:27
  TRACK 64 AUDIO
    TITLE "16:cjc029_5935"
    INDEX 01 00:54:36
  TRACK 65 AUDIO
    TITLE "0:"
    INDEX 01 00:55:51
  TRACK 66 AUDIO
    TITLE "17:cjc029_5936"
    INDEX 01 00:56:35
  TRACK 67 AUDIO
    TITLE "0:"
    INDEX 01 00:57:54
  TRACK 68 AUDIO
    TITLE "16:cjc029_5937"
    INDEX 01 00:57:58
  TRACK 69 AUDIO
    TITLE "0:"
    INDEX 01 00:58:67
